# xmcd
#
# Track frame offsets: 
#        150
#        13500
#        28457
#        42930
#        56077
#        68082
#        82452
#        95435
#        109885
#        123195
#        136415
#        148207
#        161990
#        175800
#        188615
#        198695
#        209600
#        222665
#
# Disc length: 3150 seconds
#
# Revision: 5
# Processed by: cddbd v1.5.2PL0 Copyright (c) Steve Scherf et al.
# Submitted via: ExactAudioCopyFreeDBPlugin 1.0
#
DISCID=220c4c12
DTITLE=Billie Holiday - Lady Day - The Best Of Billie Holiday [CD1]
DYEAR=2001
DGENRE=Jazz
TTITLE0=What A Little Moonlight Can Do
TTITLE1=These Foolish Things
TTITLE2=I Cried For You
TTITLE3=Summertime
TTITLE4=Billie's Blues
TTITLE5=If You Were Mine
TTITLE6=A Fine Romance
TTITLE7=Easy To Love
TTITLE8=I've Got My Love To Keep Me Warm
TTITLE9=I Must Have That Man
TTITLE10=Me, Myself And I
TTITLE11=They Can't Take That Away From Me
TTITLE12=Easy Living
TTITLE13=A Sailboat In The Moonlight
TTITLE14=Travelin' All Alone
TTITLE15=When A Woman Loves A Man
TTITLE16=You Go To My Head
TTITLE17=My Man
EXTD=YEAR: 2001
EXTT0=
EXTT1=
EXTT2=
EXTT3=
EXTT4=
EXTT5=
EXTT6=
EXTT7=
EXTT8=
EXTT9=
EXTT10=
EXTT11=
EXTT12=
EXTT13=
EXTT14=
EXTT15=
EXTT16=
EXTT17=
PLAYORDER=
